<svg width="672.0875px" height="122px" xmlns="http://www.w3.org/2000/svg" viewBox="-86.04374999999999 14 672.0875 122" style="background: none;" preserveAspectRatio="xMidYMid"><defs><filter id="editing-hover" x="-100%" y="-100%" width="300%" height="300%"><feFlood flood-color="#052b4a" result="flood"></feFlood><feComposite operator="in" in2="SourceAlpha" in="flood" result="shadow"></feComposite><feOffset dx="-4" dy="-4" in="SourceGraphic" result="offset-1"></feOffset><feOffset dx="4" dy="4" in="shadow" result="offset-2"></feOffset><feMerge><feMergeNode in="offset-2"></feMergeNode><feMergeNode in="offset-1"></feMergeNode></feMerge></filter></defs><g filter="url(#editing-hover)"><g transform="translate(12.044993191957474, 104.44000053405762)"><path d="M26.11-42.69L26.11-42.69L26.11-42.69Q41.79-42.69 41.79-31.62L41.79-31.62L41.79-31.62Q41.79-25.54 37.89-21.89L37.89-21.89L37.89-21.89Q34.05-18.24 27.33-18.24L27.33-18.24L27.33-18.24Q24.19-18.24 21.76-20.03L21.76-20.03L21.76-20.03Q20.61-20.80 19.84-21.82L19.84-21.82L19.84-21.82Q24.51-21.82 26.98-24.67L26.98-24.67L26.98-24.67Q29.44-27.52 29.44-33.09L29.44-33.09L29.44-33.09Q29.44-38.66 23.94-38.66L23.94-38.66L22.40-38.66L22.40-38.66Q22.02-38.66 21.70-38.59L21.70-38.59L14.34 0L0.45 0L8.32-41.92L8.32-41.92Q15.17-42.56 19.14-42.62L19.14-42.62L19.14-42.62Q23.10-42.69 26.11-42.69ZM68.03-10.82L68.03-10.82L68.03-10.82Q69.63-9.73 69.63-7.33L69.63-7.33L69.63-7.33Q69.63-4.93 68.42-3.39L68.42-3.39L68.42-3.39Q67.20-1.86 65.22-0.83L65.22-0.83L65.22-0.83Q61.12 1.28 56.70 1.28L56.70 1.28L56.70 1.28Q52.29 1.28 49.70 0.32L49.70 0.32L49.70 0.32Q47.10-0.64 45.38-2.43L45.38-2.43L45.38-2.43Q41.98-5.82 41.98-12.03L41.98-12.03L41.98-12.03Q41.98-21.70 47.23-27.58L47.23-27.58L47.23-27.58Q52.86-33.92 62.66-33.92L62.66-33.92L62.66-33.92Q68.74-33.92 71.74-31.36L71.74-31.36L71.74-31.36Q73.98-29.44 73.98-26.30L73.98-26.30L73.98-26.30Q73.98-15.04 54.53-15.04L54.53-15.04L54.53-15.04Q54.27-13.38 54.27-11.97L54.27-11.97L54.27-11.97Q54.27-9.02 55.58-7.90L55.58-7.90L55.58-7.90Q56.90-6.78 59.33-6.78L59.33-6.78L59.33-6.78Q61.76-6.78 64.35-7.90L64.35-7.90L64.35-7.90Q66.94-9.02 68.03-10.82ZM54.98-17.79L54.98-17.79L54.98-17.79Q59.52-17.79 62.14-20.61L62.14-20.61L62.14-20.61Q64.77-23.30 64.77-27.58L64.77-27.58L64.77-27.58Q64.77-29.06 64.22-29.86L64.22-29.86L64.22-29.86Q63.68-30.66 62.59-30.66L62.59-30.66L62.59-30.66Q61.50-30.66 60.58-30.24L60.58-30.24L60.58-30.24Q59.65-29.82 58.69-28.42L58.69-28.42L58.69-28.42Q56.32-25.22 54.98-17.79ZM77.18-6.40L77.18-6.40L77.18-6.40Q77.18-8.13 78.08-12.48L78.08-12.48L81.47-29.76L77.70-29.76L77.95-31.68L77.95-31.68Q85.63-33.98 93.06-39.62L93.06-39.62L96.13-39.62L94.59-32.64L99.58-32.64L99.01-29.76L94.08-29.76L90.82-12.48L90.82-12.48Q89.98-8.51 89.98-7.17L89.98-7.17L89.98-7.17Q89.98-4.10 92.67-3.46L92.67-3.46L92.67-3.46Q92.03-1.28 89.73 0L89.73 0L89.73 0Q87.42 1.28 84.16 1.28L84.16 1.28L84.16 1.28Q80.90 1.28 79.04-0.77L79.04-0.77L79.04-0.77Q77.18-2.82 77.18-6.40ZM114.62-3.52L114.62-3.52L114.62-3.52Q112.64 1.28 106.30 1.28L106.30 1.28L106.30 1.28Q103.04 1.28 100.99-0.96L100.99-0.96L100.99-0.96Q99.26-2.94 99.26-4.93L99.26-4.93L99.26-4.93Q99.26-10.11 101.63-20.22L101.63-20.22L104-32.64L116.99-33.92L113.09-13.70L113.09-13.70Q112-8.96 112-7.30L112-7.30L112-7.30Q112-3.65 114.62-3.52ZM105.15-41.54L105.15-41.54L105.15-41.54Q105.15-44.03 107.23-45.38L107.23-45.38L107.23-45.38Q109.31-46.72 112.32-46.72L112.32-46.72L112.32-46.72Q115.33-46.72 117.15-45.38L117.15-45.38L117.15-45.38Q118.98-44.03 118.98-41.54L118.98-41.54L118.98-41.54Q118.98-39.04 116.96-37.76L116.96-37.76L116.96-37.76Q114.94-36.48 111.94-36.48L111.94-36.48L111.94-36.48Q108.93-36.48 107.04-37.76L107.04-37.76L107.04-37.76Q105.15-39.04 105.15-41.54ZM121.09-6.40L121.09-6.40L121.09-6.40Q121.09-8.13 121.98-12.48L121.98-12.48L125.38-29.76L121.60-29.76L121.86-31.68L121.86-31.68Q129.54-33.98 136.96-39.62L136.96-39.62L140.03-39.62L138.50-32.64L143.49-32.64L142.91-29.76L137.98-29.76L134.72-12.48L134.72-12.48Q133.89-8.51 133.89-7.17L133.89-7.17L133.89-7.17Q133.89-4.10 136.58-3.46L136.58-3.46L136.58-3.46Q135.94-1.28 133.63 0L133.63 0L133.63 0Q131.33 1.28 128.06 1.28L128.06 1.28L128.06 1.28Q124.80 1.28 122.94-0.77L122.94-0.77L122.94-0.77Q121.09-2.82 121.09-6.40ZM181.31-29.57L181.31-29.57L181.31-29.57Q182.27-31.49 182.27-33.28L182.27-33.28L182.27-33.28Q182.27-35.07 182.08-36.06L182.08-36.06L182.08-36.06Q181.89-37.06 181.44-37.82L181.44-37.82L181.44-37.82Q180.48-39.49 178.56-39.49L178.56-39.49L178.56-39.49Q176.19-39.49 174.27-37.76L174.27-37.76L174.27-37.76Q172.22-35.97 172.22-33.15L172.22-33.15L172.22-33.15Q172.22-31.36 173.47-29.98L173.47-29.98L173.47-29.98Q174.72-28.61 176.64-27.33L176.64-27.33L176.64-27.33Q178.56-26.05 180.74-24.77L180.74-24.77L180.74-24.77Q182.91-23.49 184.83-21.95L184.83-21.95L184.83-21.95Q189.25-18.43 189.25-13.70L189.25-13.70L189.25-13.70Q189.25-10.50 187.55-7.78L187.55-7.78L187.55-7.78Q185.86-5.06 183.04-3.07L183.04-3.07L183.04-3.07Q176.90 1.28 168.77 1.28L168.77 1.28L168.77 1.28Q162.18 1.28 158.78-0.86L158.78-0.86L158.78-0.86Q155.39-3.01 155.39-6.27L155.39-6.27L155.39-6.27Q155.39-12.10 159.94-13.57L159.94-13.57L159.94-13.57Q161.22-14.02 163.17-14.02L163.17-14.02L163.17-14.02Q165.12-14.02 167.36-13.18L167.36-13.18L167.36-13.18Q166.34-10.56 166.34-8.19L166.34-8.19L166.34-8.19Q166.34-3.07 169.98-3.07L169.98-3.07L169.98-3.07Q172.35-3.07 174.30-4.80L174.30-4.80L174.30-4.80Q176.26-6.53 176.26-8.48L176.26-8.48L176.26-8.48Q176.26-10.43 175.01-11.84L175.01-11.84L175.01-11.84Q173.76-13.25 171.90-14.37L171.90-14.37L171.90-14.37Q170.05-15.49 167.90-16.58L167.90-16.58L167.90-16.58Q165.76-17.66 163.90-19.20L163.90-19.20L163.90-19.20Q159.55-22.72 159.55-28.35L159.55-28.35L159.55-28.35Q159.55-32 161.34-34.85L161.34-34.85L161.34-34.85Q163.14-37.70 166.02-39.62L166.02-39.62L166.02-39.62Q171.78-43.52 178.85-43.52L178.85-43.52L178.85-43.52Q185.92-43.52 189.34-41.41L189.34-41.41L189.34-41.41Q192.77-39.30 192.77-35.71L192.77-35.71L192.77-35.71Q192.77-32.58 190.34-30.59L190.34-30.59L190.34-30.59Q188.22-28.93 185.66-28.93L185.66-28.93L185.66-28.93Q183.10-28.93 181.31-29.57ZM196.90-1.92L196.90-1.92L196.90-1.92Q195.39-3.58 194.72-6.21L194.72-6.21L194.72-6.21Q194.05-8.83 194.05-13.12L194.05-13.12L194.05-13.12Q194.05-17.41 195.52-21.31L195.52-21.31L195.52-21.31Q196.99-25.22 199.68-28.03L199.68-28.03L199.68-28.03Q205.18-33.92 214.27-33.92L214.27-33.92L214.27-33.92Q217.54-33.92 219.90-32.83L219.90-32.83L230.85-33.92L226.11-8.96L226.11-8.96Q225.92-8.19 225.92-6.78L225.92-6.78L225.92-6.78Q225.92-5.38 226.78-4.48L226.78-4.48L226.78-4.48Q227.65-3.58 228.93-3.46L228.93-3.46L228.93-3.46Q228.29-1.28 225.95 0L225.95 0L225.95 0Q223.62 1.28 220.99 1.28L220.99 1.28L220.99 1.28Q218.37 1.28 216.61 0.29L216.61 0.29L216.61 0.29Q214.85-0.70 214.34-2.37L214.34-2.37L214.34-2.37Q213.31-0.77 211.14 0.26L211.14 0.26L211.14 0.26Q208.96 1.28 206.05 1.28L206.05 1.28L206.05 1.28Q203.14 1.28 200.77 0.51L200.77 0.51L200.77 0.51Q198.40-0.26 196.90-1.92ZM210.40-27.90L210.40-27.90L210.40-27.90Q209.66-26.75 209.02-24.80L209.02-24.80L209.02-24.80Q208.38-22.85 207.33-17.63L207.33-17.63L207.33-17.63Q206.27-12.42 206.27-8.70L206.27-8.70L206.27-8.70Q206.27-4.99 206.85-3.90L206.85-3.90L206.85-3.90Q207.42-2.82 208.45-2.82L208.45-2.82L208.45-2.82Q210.50-2.82 212.00-4.77L212.00-4.77L212.00-4.77Q213.50-6.72 214.08-10.18L214.08-10.18L217.47-28.93L217.47-28.93Q216.13-30.08 214.56-30.08L214.56-30.08L214.56-30.08Q212.99-30.08 212.06-29.57L212.06-29.57L212.06-29.57Q211.14-29.06 210.40-27.90ZM249.66-3.52L249.66-3.52L249.66-3.52Q247.68 1.28 241.34 1.28L241.34 1.28L241.34 1.28Q238.08 1.28 236.03-0.96L236.03-0.96L236.03-0.96Q234.30-2.94 234.30-4.93L234.30-4.93L234.30-4.93Q234.30-10.11 236.67-20.22L236.67-20.22L239.04-32.64L252.03-33.92L248.13-13.70L248.13-13.70Q247.04-8.96 247.04-7.30L247.04-7.30L247.04-7.30Q247.04-3.65 249.66-3.52ZM240.19-41.54L240.19-41.54L240.19-41.54Q240.19-44.03 242.27-45.38L242.27-45.38L242.27-45.38Q244.35-46.72 247.36-46.72L247.36-46.72L247.36-46.72Q250.37-46.72 252.19-45.38L252.19-45.38L252.19-45.38Q254.02-44.03 254.02-41.54L254.02-41.54L254.02-41.54Q254.02-39.04 252.00-37.76L252.00-37.76L252.00-37.76Q249.98-36.48 246.98-36.48L246.98-36.48L246.98-36.48Q243.97-36.48 242.08-37.76L242.08-37.76L242.08-37.76Q240.19-39.04 240.19-41.54ZM282.18 1.28L282.18 1.28L282.18 1.28Q274.43 1.28 274.43-4.74L274.43-4.74L274.43-4.74Q274.50-6.40 275.01-9.22L275.01-9.22L276.16-15.10L276.16-15.10Q277.89-23.42 277.89-25.28L277.89-25.28L277.89-25.28Q277.89-28.99 275.71-28.99L275.71-28.99L275.71-28.99Q272.06-28.99 270.14-19.46L270.14-19.46L266.37 0L253.50 1.28L260.16-32.70L270.66-33.92L269.63-27.65L269.63-27.65Q272.64-33.92 281.86-33.92L281.86-33.92L281.86-33.92Q286.34-33.92 288.22-32.03L288.22-32.03L288.22-32.03Q290.11-30.14 290.11-25.92L290.11-25.92L290.11-25.92Q290.11-21.95 288.06-12.67L288.06-12.67L288.06-12.67Q287.10-8.51 287.10-6.94L287.10-6.94L287.10-6.94Q287.10-5.38 287.97-4.48L287.97-4.48L287.97-4.48Q288.83-3.58 290.11-3.46L290.11-3.46L290.11-3.46Q289.47-1.28 287.26 0L287.26 0L287.26 0Q285.06 1.28 282.18 1.28ZM296.26-6.40L296.26-6.40L296.26-6.40Q296.26-8.13 297.15-12.48L297.15-12.48L300.54-29.76L296.77-29.76L297.02-31.68L297.02-31.68Q304.70-33.98 312.13-39.62L312.13-39.62L315.20-39.62L313.66-32.64L318.66-32.64L318.08-29.76L313.15-29.76L309.89-12.48L309.89-12.48Q309.06-8.51 309.06-7.17L309.06-7.17L309.06-7.17Q309.06-4.10 311.74-3.46L311.74-3.46L311.74-3.46Q311.10-1.28 308.80 0L308.80 0L308.80 0Q306.50 1.28 303.23 1.28L303.23 1.28L303.23 1.28Q299.97 1.28 298.11-0.77L298.11-0.77L298.11-0.77Q296.26-2.82 296.26-6.40ZM320.70-10.37L320.70-10.37L320.70-10.37Q318.66-11.84 318.66-14.66L318.66-14.66L318.66-14.66Q318.66-16.19 319.42-17.44L319.42-17.44L319.42-17.44Q320.19-18.69 321.73-18.88L321.73-18.88L334.34-18.88L334.34-18.88Q336.45-18.88 337.09-20.16L337.09-20.16L337.09-20.16Q338.11-19.58 338.56-18.37L338.56-18.37L338.56-18.37Q339.01-17.15 339.01-15.87L339.01-15.87L339.01-15.87Q339.01-14.59 338.02-13.34L338.02-13.34L338.02-13.34Q337.02-12.10 335.55-11.97L335.55-11.97L323.84-11.97L323.84-11.97Q322.50-11.97 321.86-11.55L321.86-11.55L321.86-11.55Q321.22-11.14 320.70-10.37ZM335.36 8.83L335.36 8.83L335.36 8.83Q338.62 8.45 340.67 4.22L340.67 4.22L340.67 4.22Q342.78-0.06 344.70-9.92L344.70-9.92L350.91-42.24L364.80-42.24L358.59-9.92L358.59-9.92Q356.22 2.62 352.32 7.55L352.32 7.55L352.32 7.55Q350.27 10.11 347.68 11.14L347.68 11.14L347.68 11.14Q345.09 12.16 342.27 12.16L342.27 12.16L342.27 12.16Q339.46 12.16 337.63 11.14L337.63 11.14L337.63 11.14Q335.81 10.11 335.36 8.83ZM392.13-10.82L392.13-10.82L392.13-10.82Q393.73-9.73 393.73-7.33L393.73-7.33L393.73-7.33Q393.73-4.93 392.51-3.39L392.51-3.39L392.51-3.39Q391.30-1.86 389.31-0.83L389.31-0.83L389.31-0.83Q385.22 1.28 380.80 1.28L380.80 1.28L380.80 1.28Q376.38 1.28 373.79 0.32L373.79 0.32L373.79 0.32Q371.20-0.64 369.47-2.43L369.47-2.43L369.47-2.43Q366.08-5.82 366.08-12.03L366.08-12.03L366.08-12.03Q366.08-21.70 371.33-27.58L371.33-27.58L371.33-27.58Q376.96-33.92 386.75-33.92L386.75-33.92L386.75-33.92Q392.83-33.92 395.84-31.36L395.84-31.36L395.84-31.36Q398.08-29.44 398.08-26.30L398.08-26.30L398.08-26.30Q398.08-15.04 378.62-15.04L378.62-15.04L378.62-15.04Q378.37-13.38 378.37-11.97L378.37-11.97L378.37-11.97Q378.37-9.02 379.68-7.90L379.68-7.90L379.68-7.90Q380.99-6.78 383.42-6.78L383.42-6.78L383.42-6.78Q385.86-6.78 388.45-7.90L388.45-7.90L388.45-7.90Q391.04-9.02 392.13-10.82ZM379.07-17.79L379.07-17.79L379.07-17.79Q383.62-17.79 386.24-20.61L386.24-20.61L386.24-20.61Q388.86-23.30 388.86-27.58L388.86-27.58L388.86-27.58Q388.86-29.06 388.32-29.86L388.32-29.86L388.32-29.86Q387.78-30.66 386.69-30.66L386.69-30.66L386.69-30.66Q385.60-30.66 384.67-30.24L384.67-30.24L384.67-30.24Q383.74-29.82 382.78-28.42L382.78-28.42L382.78-28.42Q380.42-25.22 379.07-17.79ZM403.04-1.92L403.04-1.92L403.04-1.92Q401.54-3.58 400.86-6.21L400.86-6.21L400.86-6.21Q400.19-8.83 400.19-13.12L400.19-13.12L400.19-13.12Q400.19-17.41 401.66-21.31L401.66-21.31L401.66-21.31Q403.14-25.22 405.82-28.03L405.82-28.03L405.82-28.03Q411.33-33.92 420.42-33.92L420.42-33.92L420.42-33.92Q423.68-33.92 426.05-32.83L426.05-32.83L436.99-33.92L432.26-8.96L432.26-8.96Q432.06-8.19 432.06-6.78L432.06-6.78L432.06-6.78Q432.06-5.38 432.93-4.48L432.93-4.48L432.93-4.48Q433.79-3.58 435.07-3.46L435.07-3.46L435.07-3.46Q434.43-1.28 432.10 0L432.10 0L432.10 0Q429.76 1.28 427.14 1.28L427.14 1.28L427.14 1.28Q424.51 1.28 422.75 0.29L422.75 0.29L422.75 0.29Q420.99-0.70 420.48-2.37L420.48-2.37L420.48-2.37Q419.46-0.77 417.28 0.26L417.28 0.26L417.28 0.26Q415.10 1.28 412.19 1.28L412.19 1.28L412.19 1.28Q409.28 1.28 406.91 0.51L406.91 0.51L406.91 0.51Q404.54-0.26 403.04-1.92ZM416.54-27.90L416.54-27.90L416.54-27.90Q415.81-26.75 415.17-24.80L415.17-24.80L415.17-24.80Q414.53-22.85 413.47-17.63L413.47-17.63L413.47-17.63Q412.42-12.42 412.42-8.70L412.42-8.70L412.42-8.70Q412.42-4.99 412.99-3.90L412.99-3.90L412.99-3.90Q413.57-2.82 414.59-2.82L414.59-2.82L414.59-2.82Q416.64-2.82 418.14-4.77L418.14-4.77L418.14-4.77Q419.65-6.72 420.22-10.18L420.22-10.18L423.62-28.93L423.62-28.93Q422.27-30.08 420.70-30.08L420.70-30.08L420.70-30.08Q419.14-30.08 418.21-29.57L418.21-29.57L418.21-29.57Q417.28-29.06 416.54-27.90ZM467.52 1.28L467.52 1.28L467.52 1.28Q459.78 1.28 459.78-4.74L459.78-4.74L459.78-4.74Q459.84-6.40 460.35-9.22L460.35-9.22L461.50-15.10L461.50-15.10Q463.23-23.42 463.23-25.28L463.23-25.28L463.23-25.28Q463.23-28.99 461.06-28.99L461.06-28.99L461.06-28.99Q457.41-28.99 455.49-19.46L455.49-19.46L451.71 0L438.85 1.28L445.50-32.70L456-33.92L454.98-27.65L454.98-27.65Q457.98-33.92 467.20-33.92L467.20-33.92L467.20-33.92Q471.68-33.92 473.57-32.03L473.57-32.03L473.57-32.03Q475.46-30.14 475.46-25.92L475.46-25.92L475.46-25.92Q475.46-21.95 473.41-12.67L473.41-12.67L473.41-12.67Q472.45-8.51 472.45-6.94L472.45-6.94L472.45-6.94Q472.45-5.38 473.31-4.48L473.31-4.48L473.31-4.48Q474.18-3.58 475.46-3.46L475.46-3.46L475.46-3.46Q474.82-1.28 472.61 0L472.61 0L472.61 0Q470.40 1.28 467.52 1.28Z" fill="#ffd5af"></path></g></g><style>text {
  font-size: 64px;
  font-family: Arial Black;
  dominant-baseline: central;
  text-anchor: middle;
}</style></svg>